<svg xmlns="http://www.w3.org/2000/svg" width="55.69" height="58.683" viewBox="0 0 55.69 58.683"><defs><style>.a{fill:none;stroke:#de6932;stroke-linecap:round;stroke-linejoin:round;stroke-width:2.5px;}</style></defs><g transform="translate(-1585.264 414.004)"><g transform="translate(1587.499 -398.682)"><line class="a" x2="2.71" y2="12.314" transform="translate(11.395 5.277)"/><line class="a" x2="2.971" y2="13.501" transform="translate(16.889 3.031)"/><line class="a" x2="2.617" y2="11.893" transform="translate(23.15 4.181)"/><path class="a" d="M1620.646-357.938l-.757-6.275c1.791-.81,2.539-4.183,2.1-6.175l-.894-4.067-.351-1.6-1.029-4.673c-.007-.036-.02-.071-.029-.107l-3.193-14.507a2.931,2.931,0,0,0-3.481-2.226,2.931,2.931,0,0,0-2.226,3.481l-.586-2.667a2.931,2.931,0,0,0-3.481-2.226,2.93,2.93,0,0,0-2.225,3.481l-.2-.892a2.93,2.93,0,0,0-3.481-2.225,2.93,2.93,0,0,0-2.225,3.481l.384,1.743a2.931,2.931,0,0,0-3.481-2.225,2.93,2.93,0,0,0-2.225,3.481l3.364,15.29c-.022.333.76,4.134.821,4.476l-4.964-5.553a2.8,2.8,0,0,0-4.552-.009,3.947,3.947,0,0,0,.56,4.392l8.353,10.134a7.538,7.538,0,0,0,6.694,2.856l.743,3.375" transform="translate(-1587.485 399.044)"/></g><g transform="translate(1610.349 -407.417)"><line class="a" x1="2.118" y2="13.886" transform="translate(15.471 4.738)"/><line class="a" x1="1.936" y2="14.134" transform="translate(10.271 2.799)"/><line class="a" x1="0.636" y2="6.141" transform="translate(5.59 4.162)"/><path class="a" d="M1609.738-398.158l.566-5.449a2.822,2.822,0,0,1,3.261-2.285,2.822,2.822,0,0,1,2.284,3.26l.457-2.593a2.822,2.822,0,0,1,3.26-2.284,2.823,2.823,0,0,1,2.285,3.26l.153-.868a2.823,2.823,0,0,1,3.26-2.285,2.822,2.822,0,0,1,2.285,3.261l-.3,1.693a2.823,2.823,0,0,1,3.26-2.285,2.823,2.823,0,0,1,2.285,3.261l-2,11.5c.034.32-1.775,7.34-1.821,7.67l5.147-5.52a2.7,2.7,0,0,1,4.382-.2,3.8,3.8,0,0,1-.36,4.252l-7.007,11.034c-1.513,2.261-3.411,3.161-5.469,3.023l-1.17,8.694" transform="translate(-1609.738 407.552)"/></g><line class="a" x1="0.82" y1="4.734" transform="translate(1603.097 -412.559)"/><line class="a" x1="4.293" y1="2.481" transform="translate(1586.971 -401.725)"/><line class="a" x1="2.969" y1="4.638" transform="translate(1593.466 -410.043)"/></g></svg>