<svg xmlns="http://www.w3.org/2000/svg" width="26.929" height="57.915" viewBox="0 0 26.929 57.915"><defs><style>.a,.b{fill:none;stroke:#de6932;stroke-width:2.5px;}.a{stroke-miterlimit:10;}.b{stroke-linecap:round;stroke-linejoin:round;}</style></defs><g transform="translate(-1742.502 414.871)"><path class="a" d="M1754.383-385.822a2.467,2.467,0,0,0,1.709.66,2.467,2.467,0,0,0,1.708-.66,2.169,2.169,0,0,0,.694-1.519l0-.061v-18.007l0-.061a2.2,2.2,0,0,0-.7-1.522,2.471,2.471,0,0,0-1.7-.655,2.472,2.472,0,0,0-1.7.655,2.2,2.2,0,0,0-.7,1.522l0,.061V-387.4l0,.061A2.169,2.169,0,0,0,1754.383-385.822Z"/><path class="b" d="M1764.792-376.164v-.07l-1.316-7.312a8.26,8.26,0,0,1-1.571,2.051,8.409,8.409,0,0,1-5.813,2.307,8.41,8.41,0,0,1-5.814-2.307,8.243,8.243,0,0,1-1.758-2.4l-1.377,7.826c1.063.292,3.452.638,8.824.686C1762.06-375.385,1764.107-375.839,1764.792-376.164Z"/><path class="b" d="M1755.967-362.5c-5.374-.048-7.763.321-8.825-.325v4.388s3.23.232,8.9.232c5.608,0,8.753-.232,8.753-.232v-4.619C1764.107-362.355,1762.06-362.5,1755.967-362.5Z"/><path class="b" d="M1764.449-405.961a8.142,8.142,0,0,0-2.547-5.356,8.41,8.41,0,0,0-5.81-2.3,8.41,8.41,0,0,0-5.811,2.3,8.143,8.143,0,0,0-2.547,5.356h-.022v19.1h.021a8.1,8.1,0,0,0,.787,2.96,8.243,8.243,0,0,0,1.758,2.4,8.41,8.41,0,0,0,5.814,2.307,8.409,8.409,0,0,0,5.813-2.307,8.26,8.26,0,0,0,1.571-2.051,8.092,8.092,0,0,0,.974-3.311h.021v-19.1Zm-10.762.552,0-.061a2.2,2.2,0,0,1,.7-1.522,2.472,2.472,0,0,1,1.7-.655,2.471,2.471,0,0,1,1.7.655,2.2,2.2,0,0,1,.7,1.522l0,.061V-387.4l0,.061a2.169,2.169,0,0,1-.694,1.519,2.467,2.467,0,0,1-1.708.66,2.467,2.467,0,0,1-1.709-.66,2.169,2.169,0,0,1-.694-1.519l0-.061Z"/><path class="b" d="M1764.792-363.057v-13.107c-.685.325-2.732.779-8.825.779-5.372-.048-7.761-.394-8.824-.686v13.245a82.547,82.547,0,0,0,8.825.325C1761.275-362.52,1762.6-362.58,1764.792-363.057Z"/><line class="b" x2="24.429" transform="translate(1743.752 -358.306)"/></g></svg>